<svg width="149" height="40" viewBox="0 0 149 40" fill="none" xmlns="http://www.w3.org/2000/svg">
<path d="M140.583 19.0408L148.499 40C146.166 39.6663 143.834 39.2489 141.458 38.874L136.999 27.2915L132.416 37.9167C130.167 37.5418 127.957 37.4156 125.708 37.1244L133.75 18.7909L126.457 0H133.208L137.291 10.499L141.667 0H148.499L140.583 19.0408ZM121.125 0H115V36.3333C117 36.4583 119.083 36.5408 121.125 36.7907V0ZM109.707 35.9159C104.125 35.541 98.5411 35.2085 92.8335 35.0823V0H99.0822V29.1661C102.666 29.2499 106.249 29.541 109.707 29.7073V35.9159ZM86.1663 14.2081V20.458H77.6256V34.6662H71.4582V0H88.9582V6.24988H77.6256V14.2081H86.1663ZM60.958 6.24988V34.9998C58.8747 34.9998 56.7502 34.9998 54.7081 35.0823V6.24988H48.2496V0H67.4579V6.24988H60.958ZM41.4998 20.7905C38.7504 20.7905 35.4998 20.7905 33.1666 20.9167V30.2084C36.8333 29.9572 40.5 29.666 44.2079 29.541V35.541L26.9167 36.9169V0H44.2079V6.24988H33.1666V14.6655C35.5836 14.6655 39.2915 14.5406 41.4998 14.5406V20.7905ZM6.87486 17.2912V39.1239C4.62535 39.3751 2.62454 39.6663 0.5 40V0H6.4587L14.5832 22.7088V0H20.8331V37.4156C18.6248 37.7917 16.3753 37.9167 13.9995 38.2491L6.87486 17.2912Z" fill="#E50914"/>
</svg>
